# xmcd
#
# Track frame offsets:
#	150
#	11862
#	27012
#	39162
#	50112
#	66162
#	77262
#	89187
#	104562
#	119112
#
# Disc length: 1740 seconds
#
# Revision: 4
# Processed by: cddbd v1.4PL0 Copyright (c) Steve Scherf et al.
# Submitted via: audiograbber 1.81.03
#
DISCID=8606ca0a
DTITLE=Marty Robbins - Marty Robbins Sings Romantic Favorites
DYEAR=1900
DGENRE=
TTITLE0=You Made Me Love You
TTITLE1=As Time Goes By
TTITLE2=That Old Feeling
TTITLE3=Can't Help Falling in Love
TTITLE4=My Woman, My Woman, My Wife
TTITLE5=Love is Blue (L'Amour Est Bleu)
TTITLE6=Yesterday
TTITLE7=Try a Little Tenderness
TTITLE8=By the Time I get to Phoenix
TTITLE9=Among my Souvenirs
EXTD=
EXTT0=
EXTT1=
EXTT2=
EXTT3=
EXTT4=
EXTT5=
EXTT6=
EXTT7=
EXTT8=
EXTT9=
PLAYORDER=
